# AST/ASF file generated using VICON BodyLanguage
# -----------------------------------------------
:version 1.10
:name VICON
:units
  mass 1.0
  length 0.45
  angle deg
:documentation
   .ast/.asf automatically generated from VICON data using
   VICON BodyBuilder and BodyLanguage model FoxedUp or BRILLIANT.MOD
:root
   order TX TY TZ RX RY RZ
   axis XYZ
   position 0 0 0  
   orientation 0 0 0 
:bonedata
  begin
     id 1 
     name lhipjoint
     direction 0.690799 -0.707083 0.151096 
     length 2.54797 
     axis 0 0 0  XYZ
  end
  begin
     id 2 
     name lfemur
     direction 0.34202 -0.939693 0  
     length 7.21646  
     axis 0 0 20  XYZ
    dof rx ry rz
    limits (-160.0 20.0)
           (-70.0 70.0)
           (-60.0 70.0)
  end
  begin
     id 3 
     name ltibia
     direction 0.34202 -0.939693 0   
     length 8.16759   
     axis 0 0 20   XYZ
    dof rx
    limits (-10.0 170.0)
  end
  begin
     id 4 
     name lfoot
     direction 0.0487203 -0.133858 0.989802   
     length 1.93375   
     axis -90 7.62852e-016 20   XYZ
    dof rx rz
    limits (-45.0 90.0)
           (-70.0 20.0)
  end
  begin
     id 5 
     name ltoes
     direction 1.53453e-011 -4.21783e-011 1   
     length 0.979747   
     axis -90 7.62852e-016 20   XYZ
    dof rx
    limits (-90.0 20.0)
  end
  begin
     id 6 
     name rhipjoint
     direction -0.694693 -0.703425 0.150315   
     length 2.56122  
     axis 0 0 0  XYZ 
  end
  begin
     id 7 
     name rfemur
     direction -0.34202 -0.939693 0   
     length 7.36786   
     axis 0 0 -20   XYZ
    dof rx ry rz
    limits (-160.0 20.0)
           (-70.0 70.0)
           (-70.0 60.0)
  end
  begin
     id 8 
     name rtibia
     direction -0.34202 -0.939693 0   
     length 8.07288   
     axis 0 0 -20   XYZ
    dof rx
    limits (-10.0 170.0)
 end
 begin
     id 9 
     name rfoot
     direction -0.0428397 -0.117701 0.992125   
     length 1.88295  
     axis -90 -7.62852e-016 -20   XYZ
    dof rx rz
    limits (-45.0 90.0)
           (-20.0 70.0)
  end
  begin
     id 10 
     name rtoes
     direction -1.53456e-011 -4.2187e-011 1   
     length 0.955578   
     axis -90 -7.62852e-016 -20   XYZ
    dof rx
    limits (-90.0 20.0)
  end
  begin
     id 11 
     name lowerback
     direction 0.0288145 0.999398 -0.0193241   
     length 1.92149   
     axis 0 0 0   XYZ
    dof rx ry rz
    limits (-20.0 45.0)
           (-30.0 30.0)
           (-30.0 30.0)
  end
  begin
     id 12 
     name upperback
     direction 0.0233784 0.998099 0.0570278   
     length 1.90435   
     axis 0 0 0   XYZ
    dof rx ry rz
    limits (-20.0 45.0)
           (-30.0 30.0)
           (-30.0 30.0)
  end
  begin
     id 13 
     name thorax
     direction 0.0096694 0.997833 0.0650817   
     length 1.9111   
     axis 0 0 0   XYZ
    dof rx ry rz
    limits (-20.0 45.0)
           (-30.0 30.0)
           (-30.0 30.0)
  end
  begin
     id 14 
     name lowerneck
     direction 0.00516803 0.999916 0.0118722   
     length 1.74664   
     axis 0 0 0   XYZ
    dof rx ry rz
    limits (-20.0 45.0)
           (-30.0 30.0)
           (-30.0 30.0)
  end
  begin
     id 15 
     name upperneck
     direction -0.0510851 0.996117 -0.071696   
     length 1.68498   
     axis 0 0 0   XYZ
    dof rx ry rz
    limits (-20.0 45.0)
           (-30.0 30.0)
           (-30.0 30.0)
  end
  begin
     id 16
     name head
     direction -0.019188 0.999436 -0.0275702  
     length 1.83483  
     axis 0 0 0   XYZ
    dof rx ry rz
    limits (-20.0 45.0)
           (-30.0 30.0)
           (-30.0 30.0)
  end
  begin
     id 17 
     name lclavicle
     direction 0.967006 0.248456 -0.0562957  
     length 3.39395  
     axis 0 0 0   XYZ
    dof ry rz
    limits (-20.0 10.0)
           (0.0 20.0)
  end
  begin
     id 18 
     name lhumerus
     direction 1 -4.48962e-011 -5.62711e-019   
     length 5.24318   
     axis 180 -30 -90   XYZ
    dof rx ry rz
    limits (-60.0 90.0)
           (-90.0 90.0)
           (-90.0 90.0)
  end
  begin
     id 19
     name lradius
     direction 1 -4.48966e-011 7.90625e-027   
     length 2.98999   
     axis 180 -30 -90   XYZ
    dof rx
    limits (-10.0 170.0)
  end
  begin
     id 20
     name lwrist
     direction 1 -4.48959e-011 1.61068e-026   
     length 1.49499   
     axis -9.31229e-015 90 90   XYZ
    dof ry
    limits (-180.0 0.0)
 end
  begin
     id 21 
     name lhand
     direction 1 -4.49017e-011 3.22136e-026   
     length 0.726745   
     axis -2.0555e-014 90 90   XYZ
    dof rx rz
    limits (-90.0 90.0)
           (-45.0 45.0)
  end
  begin
     id 22 
     name lfingers
     direction 1 -4.4898e-011 6.44272e-026   
     length 0.58592   
     axis -4.11101e-014 90 90   XYZ
    dof rx
    limits (0.0 90.0)
  end
  begin
     id 23
     name lthumb
     direction 0.707107 -6.34922e-011 0.707107   
     length 0.841268   
     axis -90 45 2.85299e-015   XYZ
    dof rx rz
    limits (-45.0 45.0)
           (-45.0 45.0)
  end
  begin
     id 24 
     name rclavicle
     direction -0.972232 0.230238 0.0419005   
     length 3.40416  
     axis 0 0 0   XYZ 
    dof ry rz
    limits (-10.0 20.0)
           (-20.0 0.0)
  end
  begin
     id 25 
     name rhumerus
     direction -1 -4.48976e-011 2.48487e-027  
     length 5.37045   
     axis 180 30 90   XYZ
    dof rx ry rz
    limits (-90.0 60.0)
           (-90.0 90.0)
           (-90.0 90.0)
  end
  begin
     id 26 
     name rradius
     direction -1 -4.48942e-011 7.87951e-027   
     length 2.92792   
     axis 180 30 90   XYZ
    dof rx
    limits (-10.0 170.0)
  end
  begin
     id 27 
     name rwrist
     direction -1 -4.48969e-011 1.61068e-026   
     length 1.46396   
     axis -9.31229e-015 -90 -90   XYZ
    dof ry
    limits (-180.0 0.0)
  end
  begin
     id 28
     name rhand
     direction -1 -4.49043e-011 3.22136e-026   
     length 0.784497   
     axis -2.0555e-014 -90 -90   XYZ
    dof rx rz
    limits (-90.0 90.0)
           (-45.0 45.0)
  end
  begin
     id 29
     name rfingers
     direction -1 -4.48823e-011 6.44272e-026   
     length 0.632482   
     axis -4.11101e-014 -90 -90   XYZ
    dof rx
    limits (0.0 90.0)
  end
  begin
     id 30
     name rthumb
     direction -0.707107 -6.34923e-011 0.707107   
     length 0.908121   
     axis -90 -45 -2.85299e-015   XYZ
    dof rx rz
    limits (-45.0 45.0)
           (-45.0 45.0)
  end
:hierarchy
  begin
    root lhipjoint rhipjoint lowerback
    lhipjoint lfemur
    lfemur ltibia
    ltibia lfoot
    lfoot ltoes
    rhipjoint rfemur
    rfemur rtibia
    rtibia rfoot
    rfoot rtoes
    lowerback upperback
    upperback thorax
    thorax lowerneck lclavicle rclavicle
    lowerneck upperneck
    upperneck head
    lclavicle lhumerus
    lhumerus lradius
    lradius lwrist
    lwrist lhand lthumb
    lhand lfingers
    rclavicle rhumerus
    rhumerus rradius
    rradius rwrist
    rwrist rhand rthumb
    rhand rfingers
  end

#!OML:ASF E:\Style6\Style6.ASF
:FULLY-SPECIFIED
:DEGREES
782
root 0.357784 15.4015 0.0293612 14.9123 -0.15081 -1.84958
lowerback 6.31793 -2.1958 2.58097
upperback -9.10988 -2.30806 3.14136
thorax -13.4765 -1.15627 2.42457
lowerneck -11.0243 1.97617 4.77373
upperneck 18.1039 3.02046 -6.23634
head 7.54307 1.19566 -2.54722
rclavicle -2.41772e-014 3.02153e-014
rhumerus 12.8934 -44.4908 15.6799
rradius 58.6643
rwrist 32.775
rhand 28.3212 -0.836081
rfingers 7.12502
rthumb 52.1915 -20.8273
lclavicle -2.41772e-014 3.02153e-014
lhumerus -100.045 -52.0868 123.91
lradius 93.8322
lwrist 25.7955
lhand 9.52911 7.07338
lfingers 7.12502
lthumb 34.6796 33.7037
rfemur -52.5381 -21.0215 26.0719
rtibia 71.6641
rfoot -25.7111 12.7624
rtoes 3.92835
lfemur -53.699 16.0322 -20.3127
ltibia 73.4594
lfoot -29.6429 -4.53136
ltoes -22.6665
783
root 0.359007 15.4046 0.0303553 14.9524 -0.131689 -1.92481
lowerback 6.27451 -2.17699 2.68387
upperback -9.07061 -2.26668 3.18943
thorax -13.4068 -1.14428 2.40807
lowerneck -11.0678 2.10654 4.76829
upperneck 18.0748 3.20457 -6.26315
head 7.55301 1.28044 -2.5362
rclavicle -1.47101e-014 -4.77083e-015
rhumerus 12.9082 -44.5793 15.6615
rradius 58.618
rwrist 32.7888
rhand 28.447 -0.866394
rfingers 7.12502
rthumb 52.3055 -20.7888
lclavicle -1.47101e-014 -4.77083e-015
lhumerus -99.7584 -52.2248 123.654
lradius 93.7263
lwrist 26.1708
lhand 9.85657 7.42045
lfingers 7.12502
lthumb 34.9903 33.9788
rfemur -52.5381 -21.0056 26.1724
rtibia 71.6085
rfoot -25.9458 12.2777
rtoes 1.53625
lfemur -53.7281 16.031 -20.2403
ltibia 73.431
lfoot -29.6203 -4.63473
ltoes -22.3434
784
root 0.359832 15.409 0.0311011 14.9503 -0.148029 -1.98945
lowerback 6.28123 -2.15425 2.77027
upperback -9.04915 -2.22209 3.21258
thorax -13.3899 -1.13012 2.37666
lowerneck -11.0399 2.25715 4.84522
upperneck 18.0643 3.40497 -6.29281
head 7.55863 1.37943 -2.53877
rclavicle -2.95692e-014 3.18055e-015
rhumerus 12.9085 -44.596 15.6348
rradius 58.5349
rwrist 32.82
rhand 28.4654 -0.877804
rfingers 7.12502
rthumb 52.3221 -20.7901
lclavicle -2.95692e-014 3.18055e-015
lhumerus -99.5372 -52.3356 123.328
lradius 93.6775
lwrist 26.6413
lhand 10.6504 8.25144
lfingers 7.12502
lthumb 35.743 34.6307
rfemur -52.4917 -20.951 26.2249
rtibia 71.5294
rfoot -25.8272 12.3635
rtoes 1.83421
lfemur -53.7072 16.0595 -20.1746
ltibia 73.3987
lfoot -29.6025 -4.64067
ltoes -22.4384
785
root 0.360694 15.4144 0.0321357 14.9211 -0.162913 -2.08671
lowerback 6.28168 -2.14117 2.87786
upperback -9.0393 -2.18482 3.26301
thorax -13.3828 -1.11973 2.3652
lowerneck -10.9285 2.40971 4.93566
upperneck 18.061 3.61852 -6.37078
head 7.55377 1.48262 -2.55887
rclavicle 1.07965e-014 -8.74653e-015
rhumerus 12.8881 -44.4804 15.6728
rradius 58.4698
rwrist 32.7534
rhand 28.4279 -0.832281
rfingers 7.12502
rthumb 52.2881 -20.7652
lclavicle 1.07965e-014 -8.74653e-015
lhumerus -99.3707 -52.3454 123.041
lradius 93.5778
lwrist 27.1083
lhand 11.2381 9.01287
lfingers 7.12502
lthumb 36.2997 35.2552
rfemur -52.3997 -20.8804 26.2933
rtibia 71.4221
rfoot -25.5954 12.6614
rtoes 3.14992
lfemur -53.6532 16.1028 -20.0598
ltibia 73.3646
lfoot -29.549 -4.69123
ltoes -22.4736
786
root 0.362125 15.4175 0.034382 14.9288 -0.17468 -2.12234
lowerback 6.19874 -2.11944 2.94498
upperback -9.00292 -2.14879 3.29096
thorax -13.2905 -1.10818 2.34547
lowerneck -10.8813 2.56154 5.08868
upperneck 18.0321 3.83346 -6.53839
head 7.55538 1.58177 -2.61835
rclavicle 6.31017e-014 -3.26007e-014
rhumerus 12.7779 -44.3936 15.781
rradius 58.4651
rwrist 32.6419
rhand 28.3996 -0.753649
rfingers 7.12502
rthumb 52.2625 -20.7021
lclavicle 6.31017e-014 -3.26007e-014
lhumerus -99.1592 -52.4396 122.739
lradius 93.4269
lwrist 27.6073
lhand 11.2484 9.27836
lfingers 7.12502
lthumb 36.3094 35.5183
rfemur -52.3672 -20.8626 26.3259
rtibia 71.3476
rfoot -25.5918 12.5692
rtoes 2.51214
lfemur -53.6268 16.1068 -20.0275
ltibia 73.3154
lfoot -29.5549 -4.60431
ltoes -22.7297
787
root 0.362615 15.4213 0.0358152 14.9132 -0.179266 -2.12971
lowerback 6.18535 -2.09934 2.96216
upperback -8.97927 -2.1178 3.31534
thorax -13.2546 -1.09369 2.35511
lowerneck -10.8248 2.70977 5.24602
upperneck 17.9985 4.03663 -6.67405
head 7.55322 1.67875 -2.66917
rclavicle -1.36043e-014 0
rhumerus 12.7246 -44.314 15.8134
rradius 58.4666
rwrist 32.5709
rhand 28.3605 -0.657128
rfingers 7.12502
rthumb 52.2271 -20.6269
lclavicle -1.36043e-014 0
lhumerus -98.9965 -52.5695 122.45
lradius 93.2629
lwrist 28.0472
lhand 11.043 9.30877
lfingers 7.12502
lthumb 36.1149 35.597
rfemur -52.3096 -20.8724 26.3327
rtibia 71.3027
rfoot -25.774 12.2113
rtoes 0.760611
lfemur -53.5654 16.1206 -20.0224
ltibia 73.257
lfoot -29.599 -4.35596
ltoes -23.4527
788
root 0.363619 15.4267 0.0360688 14.8459 -0.177305 -2.07782
lowerback 6.27598 -2.08301 2.91774
upperback -8.97159 -2.09317 3.34486
thorax -13.2997 -1.07497 2.41241
lowerneck -10.7287 2.86016 5.36476
upperneck 17.996 4.25264 -6.80527
head 7.55469 1.7802 -2.71138
rclavicle -3.64024e-015 2.46493e-014
rhumerus 12.6453 -44.1201 15.9689
rradius 58.4579
rwrist 32.4351
rhand 28.2948 -0.75028
rfingers 7.12502
rthumb 52.1675 -20.7559
lclavicle -3.64024e-015 2.46493e-014
lhumerus -98.8029 -52.6558 122.133
lradius 93.0703
lwrist 28.2937
lhand 11.1108 9.3496
lfingers 7.12502
lthumb 36.1791 35.6219
rfemur -52.2025 -20.9171 26.2503
rtibia 71.268
rfoot -25.8198 12.1317
rtoes 0.474922
lfemur -53.438 16.0775 -20.0537
ltibia 73.1885
lfoot -29.6028 -4.39489
ltoes -23.12
789
root 0.365616 15.4312 0.0368729 14.8361 -0.212462 -1.99924
lowerback 6.24904 -2.03541 2.89062
upperback -8.95503 -2.03254 3.35305
thorax -13.2625 -1.0431 2.4233
lowerneck -10.6996 3.01109 5.41499
upperneck 18.0377 4.47756 -6.91299
head 7.58185 1.88175 -2.73318
rclavicle 6.1996e-015 -2.3059e-014
rhumerus 12.473 -43.9768 16.2147
rradius 58.4572
rwrist 32.2664
rhand 28.2926 -0.795894
rfingers 7.12502
rthumb 52.1655 -20.8027
lclavicle 6.1996e-015 -2.3059e-014
lhumerus -98.5749 -52.8171 121.816
lradius 92.8076
lwrist 28.4923
lhand 11.3138 9.46599
lfingers 7.12502
lthumb 36.3713 35.6904
rfemur -52.1733 -20.9268 26.1439
rtibia 71.2534
rfoot -25.784 12.2151
rtoes 0.819001
lfemur -53.3651 16.0421 -20.1419
ltibia 73.1134
lfoot -29.5791 -4.32771
ltoes -23.2278
790
root 0.367377 15.4376 0.038805 14.834 -0.254457 -1.98627
lowerback 6.22115 -1.98944 2.92912
upperback -8.94401 -1.96534 3.36407
thorax -13.2344 -1.0143 2.4
lowerneck -10.6787 3.17278 5.55317
upperneck 18.1046 4.7155 -7.08718
head 7.62364 1.98902 -2.79047
rclavicle 1.44367e-014 -1.74931e-014
rhumerus 12.3671 -43.8955 16.3215
rradius 58.4718
rwrist 32.2491
rhand 28.2583 -0.642538
rfingers 7.12502
rthumb 52.1344 -20.668
lclavicle 1.44367e-014 -1.74931e-014
lhumerus -98.4869 -53.029 121.54
lradius 92.5944
lwrist 28.7778
lhand 11.0875 9.50381
lfingers 7.12502
lthumb 36.1571 35.7816
rfemur -52.1402 -20.9194 26.1148
rtibia 71.2083
rfoot -25.7993 12.2325
rtoes 0.70782
lfemur -53.3136 16.0455 -20.1685
ltibia 73.051
lfoot -29.5558 -4.33125
ltoes -23.4074
791
root 0.368251 15.4434 0.0402125 14.8207 -0.278213 -1.94648
lowerback 6.2328 -1.95922 2.9069
upperback -8.93632 -1.9241 3.38508
thorax -13.2317 -0.99101 2.42837
lowerneck -10.5892 3.36818 5.72851
upperneck 18.1406 4.99937 -7.28359
head 7.64865 2.12048 -2.857
rclavicle 4.08751e-015 -3.18055e-015
rhumerus 12.2825 -43.8308 16.4318
rradius 58.517
rwrist 32.3482
rhand 28.3596 -0.408717
rfingers 7.12502
rthumb 52.2262 -20.379
lclavicle 4.08751e-015 -3.18055e-015
lhumerus -98.3544 -53.2208 121.168
lradius 92.3722
lwrist 28.9662
lhand 10.8295 9.38495
lfingers 7.12502
lthumb 35.9127 35.7229
rfemur -52.105 -20.9208 26.0545
rtibia 71.1668
rfoot -25.7625 12.3038
rtoes 0.99983
lfemur -53.2443 16.032 -20.2099
ltibia 72.9876
lfoot -29.5119 -4.25827
ltoes -23.6191
792
root 0.368811 15.4473 0.041209 14.8719 -0.298812 -1.99558
lowerback 6.17045 -1.92111 2.98774
upperback -8.94088 -1.86181 3.41187
thorax -13.2017 -0.96783 2.39899
lowerneck -10.4761 3.58538 5.91986
upperneck 18.1764 5.30269 -7.43189
head 7.67109 2.26724 -2.90841
rclavicle 2.67241e-014 -2.38542e-015
rhumerus 12.14 -43.713 16.5648
rradius 58.5374
rwrist 32.3576
rhand 28.3943 -0.33319
rfingers 7.12502
rthumb 52.2577 -20.2845
lclavicle 2.67241e-014 -2.38542e-015
lhumerus -98.1332 -53.4508 120.678
lradius 92.0924
lwrist 28.9771
lhand 10.8013 9.2877
lfingers 7.12502
lthumb 35.886 35.6321
rfemur -52.1257 -20.8827 26.1189
rtibia 71.1209
rfoot -25.6658 12.4516
rtoes 1.59506
lfemur -53.2755 16.0503 -20.175
ltibia 72.9495
lfoot -29.5116 -4.17332
ltoes -23.8585
793
root 0.368977 15.4492 0.0430148 14.8873 -0.297544 -2.01043
lowerback 6.16079 -1.88883 3.02569
upperback -8.9754 -1.80881 3.4399
thorax -13.2381 -0.944266 2.40099
lowerneck -10.2817 3.79379 6.09636
upperneck 18.2354 5.59814 -7.55767
head 7.68591 2.41294 -2.95192
rclavicle -1.00262e-014 1.66979e-014
rhumerus 12.1255 -43.5083 16.6138
rradius 58.4719
rwrist 32.2068
rhand 28.226 -0.504757
rfingers 7.12502
rthumb 52.1052 -20.5477
lclavicle -1.00262e-014 1.66979e-014
lhumerus -98.063 -53.6368 120.344
lradius 91.737
lwrist 28.9403
lhand 10.7354 9.22147
lfingers 7.12502
lthumb 35.8235 35.5812
rfemur -52.1169 -20.9013 26.1461
rtibia 71.0924
rfoot -25.7294 12.3618
rtoes 1.02795
lfemur -53.2638 16.0383 -20.1584
ltibia 72.9155
lfoot -29.5288 -4.22771
ltoes -23.6522
794
root 0.369184 15.4473 0.0445515 14.8693 -0.2935 -1.93955
lowerback 6.16932 -1.84967 2.99928
upperback -8.97441 -1.75824 3.43809
thorax -13.2419 -0.917497 2.40516
lowerneck -10.2004 3.99893 6.27989
upperneck 18.3753 5.8954 -7.71781
head 7.75015 2.55354 -3.00693
rclavicle -4.16702e-014 4.69132e-014
rhumerus 12.0756 -43.4526 16.6223
rradius 58.491
rwrist 32.1613
rhand 28.2325 -0.50243
rfingers 7.12502
rthumb 52.111 -20.5419
lclavicle -4.16702e-014 4.69132e-014
lhumerus -97.9678 -53.8949 120.006
lradius 91.3407
lwrist 28.9424
lhand 10.6259 9.251
lfingers 7.12502
lthumb 35.7197 35.6359
rfemur -52.1026 -20.9439 26.0613
rtibia 71.0885
rfoot -25.7037 12.4145
rtoes 1.08166
lfemur -53.2227 15.9772 -20.2203
ltibia 72.8873
lfoot -29.5452 -4.09293
ltoes -23.8801
795
root 0.370699 15.4513 0.0461492 14.8418 -0.29805 -1.92295
lowerback 6.14903 -1.79172 3.0507
upperback -8.93515 -1.67309 3.45417
thorax -13.1858 -0.881017 2.37597
lowerneck -10.2176 4.2107 6.35819
upperneck 18.5549 6.20156 -7.78802
head 7.84111 2.69637 -3.01189
rclavicle 1.12562e-014 8.74653e-015
rhumerus 11.9189 -43.4375 16.7262
rradius 58.6027
rwrist 32.1791
rhand 28.2322 -0.455992
rfingers 7.12502
rthumb 52.1108 -20.4956
lclavicle 1.12562e-014 8.74653e-015
lhumerus -97.7007 -54.2297 119.525
lradius 90.945
lwrist 28.9026
lhand 10.4284 9.22027
lfingers 7.12502
lthumb 35.5326 35.6503
rfemur -52.0415 -20.9717 26.0297
rtibia 71.0486
rfoot -25.8127 12.1787
rtoes -0.202047
lfemur -53.1521 15.9216 -20.2226
ltibia 72.8403
lfoot -29.4884 -4.08477
ltoes -23.6648
